<svg width="22" height="23" viewBox="0 0 22 23" fill="none" xmlns="http://www.w3.org/2000/svg">
<path d="M5.23949 11.5292H6.28813V12.5778H7.33603V13.6257H2.09727V12.5778H3.14516V10.4814H5.2417V11.5292H5.23949ZM18.86 20.9569H19.9064V19.9091H18.86V20.9569ZM6.28739 11.5292H7.33529V10.4814H6.28739V11.5292ZM20.9528 20.9569H22.0015V19.9091H20.9528V20.9569ZM8.38392 22.004H10.4783V20.9562H8.38392V22.004ZM17.8113 22.004V20.9562H16.7627V22.004H17.8113ZM13.6212 22.004H14.6691V19.9083H13.6212V22.004ZM5.23949 8.38643V9.43427H8.38245V8.38643H5.23949ZM4.19306 9.43354V8.38569H2.09653V10.4814H3.14443V9.43354H4.19306ZM7.33529 7.33785H0.00220213V0.00586177H7.33529V7.33785ZM6.28739 1.05371H1.04863V6.29073H6.28739V1.05371ZM2.09653 19.9091H5.23876V16.7663H2.09653V19.9091ZM12.5726 18.8605V19.9091H13.6219V18.8605H12.5726ZM5.23949 2.10155H2.09727V5.24289H5.23949V2.10155ZM22.0007 0.00586177V7.33858H14.6676V0.00586177H22.0007ZM20.9528 1.05371H15.7155V6.29073H20.9528V1.05371ZM0.000732422 14.6698H7.33456V22.0026H0.000732422V14.6698ZM1.04937 20.9569H6.28813V15.7184H1.04937V20.9569ZM1.04937 8.38643H0.000732422V13.6249H1.04937V8.38643ZM14.6676 13.6235V14.6698H15.7155V13.6235H14.6676ZM11.5247 17.8141V16.7663H10.4775V17.8148H8.38319V19.9113H10.4775V20.9591H11.5247V18.8627H12.5733V17.8148H11.5247V17.8141ZM8.38392 4.19651H10.4783V3.1472H8.38392V4.19651ZM16.7634 12.5771H18.8607V13.6249H19.9079V10.4829H18.8607V8.38643H17.8113V11.5292H14.6706V12.5778H15.7185V13.6257H16.7664V12.5778H16.7634V12.5771ZM17.8113 15.7184H16.7627V14.6698H15.7148V16.7663H12.5726V17.8148H14.6698V19.9113H15.7177V20.9591H16.7656V18.8627H20.955V17.8148H17.8128V15.7184H17.8113ZM17.8113 15.7184H18.8607V13.6235H17.8113V15.7184ZM9.43035 15.7184V14.6698H10.4768V13.6235H11.5239V12.5756H12.5726V10.4792H15.7148V8.38275H14.6669V9.4306H13.619V5.24068H12.5711V3.14426H13.619V0.00512695H12.5711V2.10082H11.5232V0.00512695H8.38099V2.10082H9.42888V1.05297H10.4753V3.1472H11.5232V6.29H12.5711V7.33785H11.5232V9.43354H10.4753V7.33785H9.42888V6.29073H8.38099V8.38643H9.42888V9.43427H8.38099V12.5778H9.42888V10.4814H10.4753V12.5778H9.42888V13.6257H8.38099V16.7663H10.4753V15.7184H9.43035ZM20.9528 16.7663V15.7184H18.8585V16.7663H20.9528ZM19.9049 2.10155H16.7634V5.24289H19.9049V2.10155ZM11.5247 15.7184H13.6219V14.6698H12.5726V13.6235H11.5239V15.7184H11.5247ZM13.6212 13.6235V12.5756H12.5718V13.6235H13.6212ZM19.9049 9.43354H22.0015V8.38569H19.9049V9.43354ZM20.9528 17.8141H22.0015V16.7663H20.9528V17.8141ZM20.9528 11.5292H22.0015V10.4814H20.9528V11.5292ZM11.5247 6.29073H10.4775V7.33858H11.5247V6.29073Z" fill="#858E95"/>
</svg>
